<mxfile host="app.diagrams.net" modified="2021-04-07T14:29:11.419Z" agent="5.0 (Windows NT 10.0; Win64; x64) AppleWebKit/537.36 (KHTML, like Gecko) Chrome/89.0.4389.114 Safari/537.36" etag="2TC76X60HI3evm8b0UAX" version="14.5.7" type="github">
  <diagram id="0lh1-O5Nm2FdVwcUzJ94" name="Page-1">
    <mxGraphModel dx="709" dy="775" grid="1" gridSize="10" guides="1" tooltips="1" connect="1" arrows="1" fold="1" page="1" pageScale="1" pageWidth="1169" pageHeight="827" math="0" shadow="0">
      <root>
        <mxCell id="0" />
        <mxCell id="1" parent="0" />
        <mxCell id="9uip8La5s2PK8bIhSBVE-2" value="&lt;font style=&quot;font-size: 21px&quot;&gt;Customer Transactoin Process&lt;/font&gt;" style="rounded=0;whiteSpace=wrap;html=1;strokeColor=none;fillColor=#FFFFFF;fontSize=12;align=right;" vertex="1" parent="1">
          <mxGeometry x="20" y="10" width="1130" height="50" as="geometry" />
        </mxCell>
        <mxCell id="9uip8La5s2PK8bIhSBVE-3" value="&lt;span style=&quot;font-size: 16px&quot;&gt;Liliia&lt;/span&gt;" style="rounded=0;whiteSpace=wrap;html=1;strokeColor=none;fillColor=#FFFFFF;fontSize=12;align=right;" vertex="1" parent="1">
          <mxGeometry x="30" y="89" width="1120" height="20" as="geometry" />
        </mxCell>
        <mxCell id="9uip8La5s2PK8bIhSBVE-5" value="" style="rounded=0;whiteSpace=wrap;html=1;strokeColor=none;fillColor=#FFFFFF;fontSize=12;fontColor=#4A4A4A;align=right;" vertex="1" parent="1">
          <mxGeometry x="10" y="822" width="1150" height="1" as="geometry" />
        </mxCell>
        <mxCell id="9uip8La5s2PK8bIhSBVE-6" value="&lt;span style=&quot;font-size: 16px&quot;&gt;Level 0&lt;/span&gt;" style="rounded=0;whiteSpace=wrap;html=1;strokeColor=none;fillColor=#FFFFFF;fontSize=12;align=right;" vertex="1" parent="1">
          <mxGeometry x="30" y="60" width="1120" height="20" as="geometry" />
        </mxCell>
      </root>
    </mxGraphModel>
  </diagram>
</mxfile>
